<?xml version="1.0" encoding="utf-8" ?>
<svg xmlns="http://www.w3.org/2000/svg" xmlns:xlink="http://www.w3.org/1999/xlink" width="1024" height="1024">
	<path transform="scale(1.6 1.6)" d="M379.11 335.469L379.622 335.781C376.579 337.49 374.229 340.398 371.696 342.782L320.478 392.765L277.148 351.049L260.401 335.314C268.204 338.083 277.191 340.441 285.509 340.849L293.291 340.931C294.247 340.936 295.727 340.739 296.597 340.947C298.545 341.412 307.843 357.495 318.438 361.637L319.18 361.951C320.777 362.539 322.756 362.28 324.263 361.586L324.724 361.364C334.643 356.746 342.069 341.447 342.988 341.027C343.753 340.678 346.25 340.882 347.163 340.875C357.748 340.794 369.234 339.638 379.11 335.469Z"/>
	<path transform="scale(1.6 1.6)" d="M550.221 82.8528C552.081 82.6797 554.468 82.4022 556.201 83.2084L556.562 83.3875C566.35 88.1692 560.4 98.7874 557.785 106.243C550.834 126.067 539.831 148.91 529.503 167.159L505.512 205.138C478.193 244.954 416.223 316.121 367.061 324.944L356.807 326.653L356.001 326.786C344.114 328.537 346.264 326.817 345.769 317.073C345.64 314.534 345.137 312.069 345.042 309.527L344.872 273.984C344.964 262.24 345.83 250.381 348.001 238.828C358.846 181.108 384.956 150.73 436.366 123.561C472.091 104.681 510.614 90.7998 550.221 82.8528Z"/>
	<path transform="scale(1.6 1.6)" d="M85.9584 82.5137C102.686 82.0022 149.311 99.0597 164.531 105.255C200.362 119.838 242.187 138.893 265.409 171.467C284.36 198.049 294.252 233.015 295.931 265.469L296.019 290.895C296.008 301.629 296.518 312.813 294.88 323.397C294.367 326.708 293.022 326.725 289.827 327.083L275.699 325.113C246.509 322.244 211.113 291.236 191.398 271.556C154.39 234.614 123.821 193.416 100.414 146.691L85.2021 112.455C82.9429 106.689 77.2975 95.1568 79.4954 88.8887L80.3184 86.7188C81.5412 84.3767 83.572 83.3328 85.9584 82.5137Z"/>
	<path transform="scale(1.6 1.6)" d="M127.338 221.406L128.281 221.252C129.469 221.65 130.307 222.605 131.113 223.525L170.485 269.834L205.191 303.047L234.015 327.656L298.281 390.627C303.323 395.284 308.688 400.118 313.129 405.349C313.652 405.965 313.364 416.196 313.37 417.5L313.481 505.58C313.911 513.924 326.57 513.188 327.308 505.74C327.906 499.702 327.501 493.36 327.505 487.274L327.511 422.683C327.509 417.212 327.929 411.341 327.163 405.927L327.102 405.529C331.561 400.578 336.567 396.007 341.406 391.432L407.207 327.207L441.29 297.676L466.03 274.026C478.285 261.738 489.827 248.295 500.743 234.806C503.791 231.04 506.315 226.815 509.419 223.128C512.107 219.936 516.329 221.666 516.693 225.821C516.936 228.595 516.63 231.582 516.598 234.375L516.541 325.703C516.54 332.837 516.035 328.996 507.772 332.644C489.342 340.78 474.07 353.702 458.235 365.89L382.09 424.27C377.464 427.843 371.641 431.229 367.835 435.623C366.253 441.921 368.58 444.484 374.447 446.062C380.505 444.548 385.44 438.99 390.225 435.265L482.377 365.009L502.792 350.71C508.337 347.221 510.403 346.707 515.869 344.364L516.438 344.114C516.839 348.783 516.552 353.688 516.552 358.381L516.533 402.06C516.526 409.11 517.9 408.624 512.344 413.201L406.047 504.322L328.866 572.782C327.287 574.329 325.61 576.249 323.675 577.339L323.173 577.58C321.684 578.319 320.503 578.811 318.88 577.967L318.594 577.813C314.725 575.913 311.625 572.113 308.43 569.262L144.121 426.516C138.156 421.502 131.198 416.657 126.017 410.858C123.153 407.652 124.055 403.319 124.05 399.33L124.199 344.393C133.442 347.336 142.123 353.576 149.887 359.257L252.79 437.991C257.659 441.717 266.071 450.79 271.697 443.296L271.932 442.969C272.916 441.627 273.211 439.972 273.614 438.384L272.223 435.691C271.193 434.121 269.409 432.54 267.965 431.353L183.645 367.322C170.942 357.512 143.467 334.065 127.601 331.074C126.615 330.888 125.335 330.483 124.465 330.012C123.653 325.675 124.057 320.714 124.053 316.306L124.031 228.933C124.033 225.208 123.522 223.168 127.338 221.406Z"/>
</svg>
