<?xml version="1.0" encoding="UTF-8"?>
<svg id="Layer_2" data-name="Layer 2" xmlns="http://www.w3.org/2000/svg" viewBox="0 0 773.55 793.45">
  <defs>
    <style>
      .cls-1 {
        fill: #fff;
        stroke-width: 0px;
      }
    </style>
  </defs>
  <path class="cls-1" d="M480.18,404.75l.82.5c-4.87,2.73-8.63,7.39-12.68,11.2l-81.95,79.97-69.33-66.75-26.8-25.18c12.48,4.43,26.86,8.2,40.17,8.86l12.45.13c1.53,0,3.9-.31,5.29.03,3.12.74,17.99,26.48,34.95,33.1l1.19.5c2.56.94,5.72.53,8.13-.58l.74-.36c15.87-7.39,27.75-31.87,29.22-32.54,1.22-.56,5.22-.23,6.68-.24,16.94-.13,35.31-1.98,51.12-8.65Z"/>
  <path class="cls-1" d="M753.96.56c2.98-.28,6.8-.72,9.57.57l.58.29c15.66,7.65,6.14,24.64,1.96,36.57-11.12,31.72-28.73,68.27-45.25,97.47l-38.39,60.77c-43.71,63.71-142.86,177.57-221.52,191.69l-16.41,2.73-1.29.21c-19.02,2.8-15.58.05-16.37-15.54-.21-4.06-1.01-8.01-1.16-12.07l-.27-56.87c.15-18.79,1.53-37.76,5.01-56.25,17.35-92.35,59.13-140.96,141.38-184.43,57.16-30.21,118.8-52.42,182.17-65.13Z"/>
  <path class="cls-1" d="M11.14.02c26.76-.82,101.36,26.47,125.72,36.39,57.33,23.33,124.25,53.82,161.4,105.94,30.32,42.53,46.15,98.48,48.84,150.4l.14,40.68c-.02,17.17.8,35.07-1.82,52-.82,5.3-2.97,5.32-8.08,5.9l-22.6-3.15c-46.7-4.59-103.34-54.2-134.88-85.69-59.21-59.11-108.12-125.02-145.57-199.78L9.93,47.92C6.31,38.7-2.72,20.25.8,10.22l1.32-3.47C4.07,3,7.32,1.33,11.14.02Z"/>
  <path class="cls-1" d="M77.35,222.25l1.51-.25c1.9.64,3.24,2.16,4.53,3.64l63,74.09,55.53,53.14,46.12,39.37,102.83,100.75c8.07,7.45,16.65,15.19,23.76,23.56.84.99.38,17.36.39,19.44l.18,140.93c.69,13.35,20.94,12.17,22.12.26.96-9.66.31-19.81.32-29.55v-103.35c0-8.75.68-18.15-.55-26.81l-.1-.64c7.13-7.92,15.14-15.24,22.89-22.56l105.28-102.76,54.53-47.25,39.58-37.84c19.61-19.66,38.08-41.17,55.54-62.75,4.88-6.03,8.92-12.79,13.88-18.68,4.3-5.11,11.06-2.34,11.64,4.31.39,4.44-.1,9.22-.15,13.69l-.09,146.12c0,11.41-.81,5.27-14.03,11.11-29.49,13.02-53.92,33.69-79.26,53.19l-121.83,93.41c-7.4,5.72-16.72,11.13-22.81,18.16-2.53,10.08,1.19,14.18,10.58,16.7,9.69-2.42,17.59-11.32,25.24-17.28l147.44-112.41,32.66-22.88c8.87-5.58,12.18-6.4,20.92-10.15l.91-.4c.64,7.47.18,15.32.18,22.83l-.03,69.89c-.01,11.28,2.19,10.5-6.7,17.83l-170.08,145.79-123.49,109.54c-2.53,2.48-5.21,5.55-8.31,7.29l-.8.39c-2.38,1.18-4.27,1.97-6.87.62l-.46-.25c-6.19-3.04-11.15-9.12-16.26-13.68l-262.89-228.39c-9.54-8.02-20.68-15.77-28.97-25.05-4.58-5.13-3.14-12.06-3.15-18.44l.24-87.9c14.79,4.71,28.68,14.69,41.1,23.78l164.64,125.97c7.79,5.96,21.25,20.48,30.25,8.49l.38-.52c1.57-2.15,2.05-4.8,2.69-7.34l-2.23-4.31c-1.65-2.51-4.5-5.04-6.81-6.94l-134.91-102.45c-20.32-15.7-64.28-53.21-89.67-58-1.58-.3-3.63-.95-5.02-1.7-1.3-6.94-.65-14.88-.66-21.93l-.04-139.8c0-5.96-.81-9.22,5.29-12.04Z"/>
</svg>