<!DOCTYPE svg PUBLIC "-//W3C//DTD SVG 1.1//EN" "http://www.w3.org/Graphics/SVG/1.1/DTD/svg11.dtd">
<!-- Uploaded to: SVG Repo, www.svgrepo.com, Transformed by: SVG Repo Mixer Tools -->
<svg fill="#ffffff" height="800px" width="800px" version="1.1" id="Layer_1" xmlns="http://www.w3.org/2000/svg" xmlns:xlink="http://www.w3.org/1999/xlink" viewBox="0 0 299.996 299.996" xml:space="preserve" stroke="#ffffff">
<g id="SVGRepo_bgCarrier" stroke-width="0"/>
<g id="SVGRepo_tracerCarrier" stroke-linecap="round" stroke-linejoin="round"/>
<g id="SVGRepo_iconCarrier"> <g> <g> <g> <path d="M76.788,26.224c1.379,1.372,3.189,2.071,4.998,2.071c1.803,0,3.613-0.693,4.998-2.071c2.771-2.771,2.771-7.233,0-9.997 L72.645,2.073c-2.764-2.764-7.226-2.764-9.997,0c-2.764,2.771-2.764,7.233,0,9.997L76.788,26.224z"/> <path d="M232.342,2.073l-14.14,14.154c-2.771,2.764-2.771,7.226,0,9.997c1.372,1.372,3.182,2.071,4.998,2.071 c1.796,0,3.606-0.693,4.991-2.071l14.147-14.154c2.771-2.764,2.771-7.226,0-9.997C239.575-0.691,235.114-0.691,232.342,2.073z"/> <path d="M76.788,171.767l-14.14,14.14c-2.764,2.771-2.764,7.233,0,9.997c1.379,1.379,3.189,2.072,4.998,2.072 c1.803,0,3.613-0.679,4.999-2.072l14.14-14.14c2.771-2.771,2.771-7.233,0-9.997C84.021,168.996,79.56,168.996,76.788,171.767z"/> <path d="M228.192,171.767c-2.764-2.771-7.226-2.771-9.99,0c-2.771,2.764-2.771,7.226,0,9.997l14.14,14.14 c1.379,1.379,3.189,2.072,4.998,2.072c1.803,0,3.613-0.679,4.998-2.072c2.771-2.764,2.771-7.226,0-9.997L228.192,171.767z"/> <path d="M36.878,94.966h-14.14c-3.91,0-7.07,3.16-7.07,7.07s3.16,7.07,7.07,7.07h14.14c3.91,0,7.07-3.16,7.07-7.07 S40.788,94.966,36.878,94.966z"/> <path d="M277.258,94.966h-14.14c-3.91,0-7.07,3.16-7.07,7.07s3.16,7.07,7.07,7.07h14.14c3.91,0,7.07-3.16,7.07-7.07 S281.168,94.966,277.258,94.966z"/> <path d="M193.542,179.354c7.197-3.931,16.134-8.83,22.674-15.37c17.406-17.406,27.191-40.447,27.545-64.881 c0.346-24.66-9-47.779-26.315-65.086c-17.357-17.357-40.433-26.93-64.987-26.93c-24.54,0-47.616,9.573-64.973,26.93 C70.086,51.415,60.301,74.456,59.94,98.897c-0.346,24.66,9,47.779,26.315,65.086c6.462,6.462,13.949,11.496,21.323,15.893v14.069 v7.07v56.56c0,23.395,19.025,42.42,42.42,42.42s42.42-19.032,42.42-42.42v-28.269c0-0.091,0.004-0.183,0-0.274v-35.087 c0-0.095-0.01-0.186-0.014-0.28v-13.683C192.779,179.785,193.153,179.559,193.542,179.354z M96.266,153.972 c-14.6-14.592-22.461-34.091-22.172-54.899c0.304-20.736,8.618-40.292,23.416-55.082c14.684-14.691,34.212-22.78,54.983-22.78 c20.765,0,40.292,8.088,54.983,22.78c14.607,14.6,22.476,34.099,22.172,54.891c-0.29,20.743-8.611,40.292-23.416,55.089 c-5.112,5.119-13.072,9.467-19.471,12.966c-1.789,0.99-3.464,1.902-4.956,2.757c-2.192,1.266-3.528,3.606-3.528,6.13v18.12 h-56.56l0.014-18.12c0-2.524-1.336-4.857-3.528-6.13C110.554,165.291,102.601,160.314,96.266,153.972z M127.112,208.086 l51.166,25.583v9.099l-56.56-25.138v-9.544H127.112z M158.729,208.086h19.549v9.774L158.729,208.086z M121.718,233.106 l39.15,17.4h-39.15V233.106z M149.998,285.856c-13.156,0-24.239-9.025-27.385-21.21h54.771 C174.237,276.831,163.154,285.856,149.998,285.856z"/> <path d="M117.49,133.999c-9.354-9.347-14.508-21.776-14.508-34.989s5.161-25.65,14.508-34.989c2.764-2.771,2.764-7.233,0-9.997 c-2.771-2.771-7.233-2.771-9.997,0c-12.019,12.012-18.651,27.99-18.651,44.979s6.632,32.967,18.651,44.979 c1.372,1.379,3.189,2.071,4.998,2.071s3.62-0.686,4.998-2.057C120.255,141.225,120.255,136.764,117.49,133.999z"/> </g> </g> </g> </g>
</svg>